<?xml version="1.0" standalone="no"?>
<!DOCTYPE svg PUBLIC "-//W3C//DTD SVG 20010904//EN"
 "http://www.w3.org/TR/2001/REC-SVG-20010904/DTD/svg10.dtd">
<svg version="1.0" xmlns="http://www.w3.org/2000/svg"
 width="819.000000pt" height="819.000000pt" viewBox="0 0 819.000000 819.000000"
 preserveAspectRatio="xMidYMid meet">
<metadata>
Created by potrace 1.11, written by Peter Selinger 2001-2013
</metadata>
<g transform="translate(0.000000,819.000000) scale(0.100000,-0.100000)"
fill="#000000" stroke="none">
<path d="M2979 8186 c-2 -2 -44 -7 -94 -11 -49 -3 -99 -8 -110 -10 -11 -3 -38
-7 -60 -10 -155 -22 -409 -89 -566 -150 -109 -42 -341 -155 -394 -190 -20 -14
-40 -25 -45 -25 -6 0 -10 -4 -10 -9 0 -5 -8 -11 -18 -13 -61 -16 -415 -323
-519 -450 -223 -274 -370 -586 -417 -888 -3 -19 -9 -46 -13 -60 -4 -14 -9
-1022 -10 -2240 -2 -2230 -1 -2277 30 -2420 2 -8 7 -31 11 -50 15 -71 59 -207
92 -287 290 -700 1018 -1215 1906 -1347 185 -28 698 -28 798 -1 8 3 44 9 80
14 415 63 853 249 1181 503 75 58 78 59 125 53 82 -11 386 -14 434 -5 25 4 64
10 86 14 174 23 426 119 603 231 116 73 279 216 376 330 44 52 182 248 209
297 29 53 62 150 112 328 19 69 41 148 49 175 20 63 136 475 140 495 2 8 4 15
5 15 1 0 4 8 14 50 2 11 9 31 14 45 5 14 10 28 11 33 0 4 7 31 15 60 9 28 56
196 106 372 49 176 97 343 105 370 8 28 17 60 19 71 3 12 11 42 20 67 8 25 18
56 20 69 3 13 21 79 41 148 36 121 91 316 121 430 57 211 -28 493 -189 629
-16 14 -35 30 -41 37 -36 35 -204 118 -251 123 -5 1 -39 10 -75 21 -59 18
-311 89 -335 94 -5 2 -37 10 -70 20 -237 68 -551 158 -605 172 -30 8 -116 33
-190 54 -74 21 -146 41 -160 44 -55 11 -73 16 -76 19 -2 2 9 35 24 73 58 139
104 315 120 454 14 128 5 481 -14 511 -2 4 -6 20 -8 36 -6 49 -56 223 -88 302
-45 116 -120 260 -181 351 -167 247 -402 475 -667 645 -75 49 -296 164 -380
199 -43 18 -292 107 -297 107 -2 0 -8 1 -15 4 -66 20 -311 69 -408 80 -30 4
-66 9 -80 11 -31 5 -476 14 -481 10z m1791 -3643 c29 -88 86 -179 160 -254
114 -115 159 -135 522 -238 154 -44 282 -82 285 -84 2 -3 -1 -15 -6 -28 -5
-13 -20 -61 -32 -107 -25 -91 -22 -89 -109 -63 -34 11 -165 35 -245 46 -50 7
-288 6 -335 0 -67 -10 -175 -27 -192 -31 -47 -10 -143 -38 -193 -57 l-40 -14
-120 63 c-154 80 -307 143 -476 193 -118 36 -171 49 -269 67 -14 2 -47 9 -75
14 -57 10 -135 21 -183 25 -52 4 -59 24 -10 29 12 2 52 7 88 11 36 4 74 9 85
11 11 3 37 7 58 9 127 17 362 86 562 164 82 33 327 162 405 215 52 35 98 64
102 65 3 1 12 -16 18 -36z"/>
</g>
</svg>
