<?xml version="1.0" standalone="no"?>
<!DOCTYPE svg PUBLIC "-//W3C//DTD SVG 20010904//EN"
 "http://www.w3.org/TR/2001/REC-SVG-20010904/DTD/svg10.dtd">
<svg version="1.0" xmlns="http://www.w3.org/2000/svg"
 width="789.000000pt" height="789.000000pt" viewBox="0 0 789.000000 789.000000"
 preserveAspectRatio="xMidYMid meet">
<metadata>
Created by potrace 1.11, written by Peter Selinger 2001-2013
</metadata>
<g transform="translate(0.000000,789.000000) scale(0.100000,-0.100000)"
fill="#000000" stroke="none">
<path d="M2859 7885 c-2 -2 -40 -6 -84 -9 -44 -3 -89 -8 -100 -10 -11 -2 -54
-9 -95 -16 -423 -68 -835 -249 -1163 -509 -81 -65 -262 -241 -312 -305 -196
-250 -336 -538 -379 -781 -3 -16 -8 -41 -11 -55 -3 -14 -8 -50 -13 -80 -9 -70
-9 -4265 0 -4345 4 -33 10 -71 13 -85 3 -14 8 -40 11 -59 3 -19 10 -45 15 -58
5 -13 7 -23 4 -23 -2 0 10 -39 26 -88 100 -296 246 -530 474 -757 167 -167
326 -282 575 -417 93 -50 381 -165 460 -183 8 -2 62 -15 120 -29 58 -14 123
-28 145 -31 22 -3 65 -10 95 -15 111 -19 210 -25 405 -25 216 0 351 11 500 40
152 29 218 46 330 81 161 52 347 133 500 218 97 54 306 202 327 230 3 5 36 5
80 -1 159 -23 429 -10 566 26 20 6 48 12 62 15 71 13 379 146 388 168 2 4 8 8
13 8 10 0 86 51 154 104 50 38 126 109 174 160 20 21 41 44 47 50 6 6 48 61
93 121 125 167 153 223 215 435 31 107 108 380 111 394 1 6 10 37 19 70 10 32
19 64 20 70 2 6 9 31 16 56 7 25 14 50 16 57 1 7 12 43 23 80 12 38 23 77 26
88 2 11 49 178 104 370 56 193 103 359 105 370 3 11 12 44 21 74 9 30 19 62
21 70 2 9 10 39 18 66 28 95 47 160 50 175 3 8 29 104 60 212 31 108 62 225
69 260 45 220 -46 459 -231 607 -32 25 -69 51 -82 57 -67 31 -139 56 -285 97
-88 25 -281 80 -430 122 -148 43 -277 79 -285 81 -8 2 -55 15 -105 29 -191 56
-304 88 -406 114 l-107 27 17 34 c21 44 61 153 66 183 3 12 9 33 14 47 10 25
26 97 37 160 3 19 8 46 10 60 13 71 12 362 -1 450 -15 94 -53 266 -64 285 -3
6 -6 15 -7 20 -5 27 -51 136 -96 228 -190 386 -530 717 -963 935 -145 73 -428
180 -515 196 -14 2 -43 9 -65 14 -22 6 -57 13 -77 16 -21 3 -57 10 -80 15 -24
5 -74 13 -113 16 -38 4 -74 10 -79 13 -10 6 -462 13 -467 7z m1727 -3497 c5
-13 8 -25 9 -28 2 -23 72 -145 107 -186 109 -128 219 -185 498 -258 8 -2 74
-21 145 -41 128 -36 151 -43 169 -44 10 -1 4 -27 -30 -139 -21 -69 -29 -82
-42 -77 -15 6 -123 32 -162 40 -260 50 -563 30 -803 -54 l-59 -21 -56 32 c-87
48 -242 123 -287 139 -22 7 -44 16 -50 20 -24 17 -302 99 -380 113 -36 7 -61
12 -95 20 -35 8 -76 14 -139 22 -30 3 -62 8 -70 9 -9 2 -25 4 -35 4 -32 2 -9
14 31 17 36 2 92 10 158 20 24 4 114 22 195 39 85 18 279 79 365 115 17 7 36
14 42 16 46 9 365 185 438 241 37 28 42 28 51 1z"/>
</g>
</svg>
